<?xml version="1.0" encoding="UTF-8"?><svg id="Layer_1" xmlns="http://www.w3.org/2000/svg" xmlns:xlink="http://www.w3.org/1999/xlink" viewBox="0 0 2000 2000"><defs><style>.cls-1{stroke:#fff;stroke-width:220px;}.cls-1,.cls-2{fill:none;}.cls-2{stroke:#1bded7;stroke-linecap:round;stroke-width:200px;}.cls-3{mask:url(#mask);}.cls-4{fill:url(#linear-gradient);}</style><linearGradient id="linear-gradient" x1="1004.0847" y1="1686" x2="1004.0847" y2="486" gradientTransform="matrix(1, 0, 0, 1, 0, 0)" gradientUnits="userSpaceOnUse"><stop offset="0" stop-color="#0c645a"/><stop offset="1" stop-color="#1bded7"/></linearGradient><mask id="mask" x="290.5212" y="486" width="1532.2893" height="1200" maskUnits="userSpaceOnUse"><path class="cls-1" d="M918.8911,1152.1472c58.0645-30.631,28.7866-18.8287,81.1089-66.1472,52.4067-47.3185,104.6446-94.637,164.5621-94.637s112.2398,47.3185,164.5621,94.637c52.4067,47.3185,104.6446,94.637,164.5621,94.637,59.7487-.0008,112.2398-47.3185,164.5621-94.637,52.4068-47.3185,104.6446-94.637,164.5621-94.637"/></mask></defs><path class="cls-4" d="M1658.4946,486H349.6747c-43.92,0-72.48,46.22-52.84,85.5L854.0847,1686h300L1711.3347,571.5c19.64-39.28-8.9199-85.5-52.8401-85.5Zm-957.926,266.2258h605.0322l-302.5161,603.8709-302.5161-603.8709Z"/><path class="cls-2" d="M177.1894,1180.637c59.7487,0,112.2398-47.3185,164.5621-94.637,52.4067-47.3185,104.6446-94.637,164.5621-94.637s112.2398,47.3185,164.5621,94.637c52.4067,47.3185,104.6446,94.637,164.5621,94.637s112.2398-47.3185,164.5621-94.637c52.4067-47.3185,104.6446-94.637,164.5621-94.637s112.2398,47.3185,164.5621,94.637c52.4067,47.3185,104.6446,94.637,164.5621,94.637,59.7487-.0008,112.2398-47.3185,164.5621-94.637,52.4068-47.3185,104.6446-94.637,164.5621-94.637"/><g class="cls-3"><path class="cls-4" d="M1658.4946,486H349.6747c-43.92,0-72.48,46.22-52.84,85.5L854.0847,1686h300L1711.3347,571.5c19.64-39.28-8.9199-85.5-52.8401-85.5Zm-957.926,266.2258h605.0322l-302.5161,603.8709-302.5161-603.8709Z"/></g></svg>