<svg xmlns="http://www.w3.org/2000/svg" viewBox="0 0 193.5 161.66"><defs><style>.a{fill:#fff;}.b{fill:none;stroke:#fff;stroke-linecap:round;stroke-linejoin:round;stroke-width:1.5px;}</style></defs><path class="a" d="M2.05,7.64V0H32.39V7.64H21.89V34.91H12.55V7.64ZM44.7,34.91V0h9.48V13.64H66.72V0H76.2V34.91H66.72V21.27H54.18V34.91Zm44.75,0V0h25.16V7.64H98.92v6h14.39v7.63H98.92v6h15.62v7.64ZM3,74.91V40H18.14a18.41,18.41,0,0,1,6.7,1.07,8.81,8.81,0,0,1,4.1,3,7.67,7.67,0,0,1,1.4,4.62,7.29,7.29,0,0,1-.85,3.51,7.57,7.57,0,0,1-2.35,2.66,9.48,9.48,0,0,1-3.55,1.46v.34a8.74,8.74,0,0,1,4.09,1.15,7.72,7.72,0,0,1,2.93,2.88A8.14,8.14,0,0,1,31.7,65a8.94,8.94,0,0,1-1.5,5.1A9.88,9.88,0,0,1,26,73.63a15.43,15.43,0,0,1-6.55,1.28Zm9.48-7.57h4.43a5.92,5.92,0,0,0,3.58-.89,3.12,3.12,0,0,0,1.19-2.65,3.71,3.71,0,0,0-.56-2.08,3.57,3.57,0,0,0-1.6-1.3A6.13,6.13,0,0,0,17.05,60H12.48Zm0-13.23h3.88a5.76,5.76,0,0,0,2.2-.39,3.35,3.35,0,0,0,1.49-1.12,3,3,0,0,0,.54-1.83,2.88,2.88,0,0,0-1.16-2.47,4.74,4.74,0,0,0-2.93-.87h-4Zm31.33,20.8V40h9.48V67.27H67.4v7.64ZM89.45,40V74.91H80V40Zm43.45,0V74.91H125L112.37,56.57h-.2V74.91h-9.48V40h8l12.41,18.27h.27V40Zm26.66,34.91H146.13V40h13.29a19.45,19.45,0,0,1,9.31,2.1,14.4,14.4,0,0,1,6.07,6A19.14,19.14,0,0,1,177,57.45a19.26,19.26,0,0,1-2.14,9.38,14.65,14.65,0,0,1-6,6A19.3,19.3,0,0,1,159.56,74.91Zm-4-8h3.62a10.46,10.46,0,0,0,4.41-.83,5.66,5.66,0,0,0,2.8-2.88,13.7,13.7,0,0,0,1-5.7,13.3,13.3,0,0,0-1-5.69,5.69,5.69,0,0,0-2.86-2.88,11.26,11.26,0,0,0-4.6-.83H155.6Zm-133.78,24a3.69,3.69,0,0,0-1.28-2.66,5.18,5.18,0,0,0-3.43-1,6.84,6.84,0,0,0-2.4.35,2.88,2.88,0,0,0-1.36.94A2.27,2.27,0,0,0,12.89,90a2.2,2.2,0,0,0,.22,1.15A2.66,2.66,0,0,0,14,92a7,7,0,0,0,1.48.72,19.09,19.09,0,0,0,2.15.58l2.86.61a21.38,21.38,0,0,1,5,1.62,11.81,11.81,0,0,1,3.38,2.37,8.59,8.59,0,0,1,1.93,3,10.69,10.69,0,0,1,.64,3.68,9.81,9.81,0,0,1-1.72,5.83,10.5,10.5,0,0,1-4.87,3.63,20.69,20.69,0,0,1-7.59,1.25A21.4,21.4,0,0,1,9.24,114,11.11,11.11,0,0,1,4,109.83a12.88,12.88,0,0,1-1.88-7.19h9a5.47,5.47,0,0,0,.8,2.69,4.41,4.41,0,0,0,2,1.65,7.76,7.76,0,0,0,3.12.57,7.47,7.47,0,0,0,2.54-.38,3.5,3.5,0,0,0,1.55-1,2.45,2.45,0,0,0,.54-1.52,2.13,2.13,0,0,0-.53-1.39,4,4,0,0,0-1.63-1.09,17.69,17.69,0,0,0-3.09-.93L13,100.45A16,16,0,0,1,5.64,97.1,8.19,8.19,0,0,1,3,90.64a9.65,9.65,0,0,1,1.77-5.82,11.87,11.87,0,0,1,5-3.9,18.2,18.2,0,0,1,7.34-1.4,17.35,17.35,0,0,1,7.32,1.42,10.89,10.89,0,0,1,4.75,4,10.63,10.63,0,0,1,1.71,6Zm21.9,24V80H68.87v7.64H53.19v6H67.58v7.63H53.19v6H68.81v7.64Zm47.67,0H81.16L92.68,80h13l11.52,34.91H106.93L99.3,89.61H99Zm-1.91-13.77h19.23v7.09H89.48Z"/><path class="b" d="M.75,128.91c14.62,0,25.59-9,25.59-9s11,9,25.58,9,29.24-9,29.24-9,14.62,9,25.59,9"/><path class="b" d="M.75,149.91c14.62,0,25.59-9,25.59-9s11,9,25.58,9,29.24-9,29.24-9,14.62,9,25.59,9"/><path class="b" d="M86.75,139.91c14.62,0,25.59-9,25.59-9s11,9,25.58,9,29.24-9,29.24-9,14.62,9,25.59,9"/><path class="b" d="M86.75,160.91c14.62,0,25.59-9,25.59-9s11,9,25.58,9,29.24-9,29.24-9,14.62,9,25.59,9"/></svg>