<svg xmlns="http://www.w3.org/2000/svg" viewBox="0 0 958.3 883.49"><defs><style>.a{fill:#ff7bac;}.a,.b,.c{stroke:#000;}.a,.b{stroke-miterlimit:10;stroke-width:8px;}.b{fill:#fff;}.c{fill:none;stroke-width:16px;}.d{fill:#9df249;}.e{fill:#75db42;}.f{fill:#bfff80;}</style></defs><path d="M145.79,827.67a32.55,32.55,0,0,1-21.44,7.83q-13.08,0-20.64-8.94-8.29-9.82-5.37-21.64,2.61-10.63,12.77-19.2,6.77-5.72,20.59-12.15,15.83-7.4,28.47-9.47,15.53-2.64,21.16,4,5.05,6,2.09,16a28.94,28.94,0,0,1-9,14.14,14.37,14.37,0,0,1-6.88,3.38,6.45,6.45,0,0,1-6.27-2.56c-1.48-1.74-2.13-3.19-2-4.32a5.2,5.2,0,0,1,2-3.18c.37-.31.94-.73,1.73-1.27a21.18,21.18,0,0,0,1.73-1.28,13.05,13.05,0,0,0,3.41-4.37,6.66,6.66,0,0,0,.52-4.93q-6.58-3.79-24.25,3.84Q129.5,790,121.53,796.74a33.55,33.55,0,0,0-8.08,9.25q-3.6,6.59.46,11.39,6,7.1,18.21,1.64t15.54-1.53a5.67,5.67,0,0,1,1.24,5.22A9.21,9.21,0,0,1,145.79,827.67Z" transform="translate(-48.48 -87)"/><path d="M195.86,799.68a6.39,6.39,0,0,1,5.09-3,9.42,9.42,0,0,1,6,1.76,7.88,7.88,0,0,1,6.53.85,9.65,9.65,0,0,1,3.8,6.07,52.56,52.56,0,0,1,16.53,17.58q7.35,13,.48,23-5.34,7.77-17.43,8.48a60.79,60.79,0,0,1-20.33-2.69q.24,11.26.6,22.6a61.28,61.28,0,0,0,5.34,21.51,13.45,13.45,0,0,0-.62,2.17,7.33,7.33,0,0,1-5.61,3,9.48,9.48,0,0,1-6.54-1.46q-4.83-3.32-6.92-15.67-2.25-13.14-1.24-34.29l-6.71,9.26a101.54,101.54,0,0,0-9.8,18.57,6.37,6.37,0,0,1-4.21,1.09,9,9,0,0,1-4.42-1.64,8.09,8.09,0,0,1-3.86-7.5q.22-5.39,6.7-14.81l3.23-4.71q8.09-11.79,16.45-22.07T196.58,808a10.45,10.45,0,0,1-1.77-4A5.62,5.62,0,0,1,195.86,799.68Zm28.26,38.11q3.23-4.71-7.17-14.8a59.62,59.62,0,0,0-7.68-6.48q-2.82,3.09-6.06,6.67t-10.89,12.71a77.29,77.29,0,0,0,16.5,4.74Q220.81,842.63,224.12,837.79Z" transform="translate(-48.48 -87)"/><path d="M292.79,844.44Q303.7,848.71,304,864a63,63,0,0,1-4.73,24.24q-7.54,19.29-19.61,30.52-15.74,14.72-32.9,8-13.42-5.26-15.35-20-1.51-11.79,4.26-26.56,5.31-13.58,19.39-29.54,17.34-19.61,28.25-15.33a6.69,6.69,0,0,1,3.48,3,11.17,11.17,0,0,1,1.4,4.84c.75.19,1.48.35,2.2.48A12.29,12.29,0,0,1,292.79,844.44Zm-42.53,41.65a49.62,49.62,0,0,0-3.77,15.1Q246,911,253,913.69q11.18,4.37,24.33-16.71a100.68,100.68,0,0,0,8.5-16.62q3.43-8.77,3.88-13.82.88-9.33-5.64-11.87-5.44-2.14-11.46,3.41c-4,3.7-6.8,5.24-8.4,4.61a88.68,88.68,0,0,0-7.88,11.11A81.34,81.34,0,0,0,250.26,886.09Z" transform="translate(-48.48 -87)"/><path d="M360.53,927.22a32.53,32.53,0,0,1-12.32,19.22q-10.4,7.93-21.83,5.4-12.56-2.79-17.39-14-4.35-10-1.47-23,1.91-8.65,9-22.15,8.12-15.47,16.92-24.78,10.74-11.52,19.26-9.63,7.67,1.71,11.36,11.45a29,29,0,0,1,1.41,16.71,14.38,14.38,0,0,1-3.42,6.85,6.44,6.44,0,0,1-6.54,1.76q-3.34-.74-4.19-2.24a5.19,5.19,0,0,1-.34-3.74c.11-.46.31-1.15.61-2.06s.5-1.59.6-2.06a13.32,13.32,0,0,0,.06-5.55,6.64,6.64,0,0,0-2.57-4.22q-7.53,1-17,17.74-8,14.19-10.24,24.36a33.57,33.57,0,0,0-.81,12.26q1.13,7.42,7.27,8.79,9.06,2,15.47-9.74T355.85,918A5.63,5.63,0,0,1,360,921.4,9.18,9.18,0,0,1,360.53,927.22Z" transform="translate(-48.48 -87)"/><path d="M423.39,872.14q11.63,1.33,15.85,16.05a63.06,63.06,0,0,1,1.64,24.63q-2.36,20.58-11.14,34.53Q418.31,965.61,400,963.51q-14.34-1.63-20-15.37-4.49-11-2.69-26.76,1.65-14.48,11.17-33.52,11.73-23.4,23.37-22.07a6.74,6.74,0,0,1,4.15,2.06,11.36,11.36,0,0,1,2.6,4.32c.76,0,1.51,0,2.24-.1A12.82,12.82,0,0,1,423.39,872.14ZM393,923.3a49.59,49.59,0,0,0,.23,15.56q2.07,9.58,9.45,10.43,11.92,1.37,19.24-22.39a100.34,100.34,0,0,0,4-18.24q1.07-9.37.2-14.36-1.53-9.24-8.49-10-5.82-.66-10.2,6.24t-6.94,6.61a87.5,87.5,0,0,0-4.77,12.76A82.18,82.18,0,0,0,393,923.3Z" transform="translate(-48.48 -87)"/><path d="M455.19,878.15a6.25,6.25,0,0,1,2.48-5,8.57,8.57,0,0,1,5.64-1.64q18.57.74,33.44,18.76,14.46,17.58,13.73,36.14a40.93,40.93,0,0,1-12.26,28.4q-11.61,11.55-28.67,12.6-4.76,1-9.36,1.92-5.15-.19-6.79-5.7a33.09,33.09,0,0,1-.87-10.47l.12-3q.6-15.27,2.17-31.65t4-33.59a11.28,11.28,0,0,1-2.6-3A6.66,6.66,0,0,1,455.19,878.15Zm41.17,47.51a33.32,33.32,0,0,0-6.06-20.61,42.28,42.28,0,0,0-16.87-14.46A485.06,485.06,0,0,0,467,953a28.28,28.28,0,0,0,29.39-27.3Z" transform="translate(-48.48 -87)"/><path d="M541.35,965.77c0,1.43-.83,2.58-2.5,3.43a10.7,10.7,0,0,1-4.93,1.29q-6.7,0-8.71-6.28-1.15-3.44-1.15-11.86,0-10.86,1-23.65t2.07-26.5q1.07-13.71,1.07-22.72a3.56,3.56,0,0,1,2.21-3.28,10.06,10.06,0,0,1,4.65-1.15,11.82,11.82,0,0,1,6.64,2.15,6.44,6.44,0,0,1,3.21,5.57,55.16,55.16,0,0,1-.71,8.57c-.48,3-1,6-1.43,8.86a506.25,506.25,0,0,0-3.28,57.29,11,11,0,0,0,.58,3.28A33.36,33.36,0,0,1,541.35,965.77Z" transform="translate(-48.48 -87)"/><path d="M591.43,953q6.57-.22,10.18,1.1,5.79,2.1,6,7.52a9.88,9.88,0,0,1-1.28,4.76c-.9,1.74-2,2.64-3.34,2.68a29.34,29.34,0,0,1-5.3-.4,80,80,0,0,0-9.47-1.12q-4.86.15-14.25,1.46t-14,1.46a6.58,6.58,0,0,1-6.78-6.36,6,6,0,0,1,3.38-5.68l-.31-5.28q-.35-10.57.16-23.74t1.11-27.26q.62-14.1.35-22.53a3.56,3.56,0,0,1,2.1-3.35,9.72,9.72,0,0,1,4.46-1.29,13.27,13.27,0,0,1,7,1.7,6,6,0,0,1,3.39,5.25,233.87,233.87,0,0,1-.9,25.05q-2.64,33.24-2.34,42.53l.17,5.28q3.29-.1,9.84-.89T591.43,953Z" transform="translate(-48.48 -87)"/><path d="M634.53,943.94a23.06,23.06,0,0,0,1.29,5.47c.72.5,2.3.72,4.74.65s4-.13,4.65-.2q2.84-.29,6-.77t6.56-1.12a36.74,36.74,0,0,1,10.64,0q6.32,1.35,6.9,6.89a8.72,8.72,0,0,1-.36,3.48,10.42,10.42,0,0,1-1.53,3.18l-2.17,1.23a34,34,0,0,1-5.44.14c-5.49-.29-8.62-.39-9.37-.31q-5.26.55-10.62,1.54-15.92,3-17.48,3.13-4,.4-5.91-4.27a46.3,46.3,0,0,1-2.74-12.5q-.47-4.39-.6-7.76t-.3-7.66a24.52,24.52,0,0,1-2.66-3.45,10.11,10.11,0,0,1-1.44-4.16,4.41,4.41,0,0,1,.68-3.09,9.71,9.71,0,0,1,2.76-2.44,119.31,119.31,0,0,1-.47-16.83q.35-9,.74-17.68c-.35-.53-.85-1.46-1.52-2.78a10.35,10.35,0,0,1-1.07-2.69q-.65-6.11,12.22-9.47a121.38,121.38,0,0,1,17.52-2.84q11.37-1.18,15.83.28a6.85,6.85,0,0,1,5,6.3,10.5,10.5,0,0,1-1.32,5.24q-1.53,3.25-3.46,2.59a15.6,15.6,0,0,0-4.38-.62q-2.15,0-6,.41l-3,.32c-1,.1-2.09.17-3.14.18a42.63,42.63,0,0,0-6.84,1.22,11.84,11.84,0,0,0-4.83,2.59q-.81,3.24-.66,14.22c.09,7.31.3,12.54.63,15.66,1.52-.16,3.73-.48,6.65-1s5.13-.83,6.65-1q8.24-.86,11.6-.35,7.16,1.13,7.75,6.8c.39,3.7-1,6.24-4.23,7.63a48.42,48.42,0,0,0-11.08-.13q-2.84.29-8.48,1.31c-3.76.69-6.54,1.12-8.34,1.31q.2,1.85.39,6.42C634.44,942.13,634.51,943.75,634.53,943.94Z" transform="translate(-48.48 -87)"/><path d="M765.11,925.71a28.27,28.27,0,0,1,10.15-1.37q6.12.66,7.59,5.88a10,10,0,0,1-.1,4.93q-.69,2.86-2.61,3.4a30.3,30.3,0,0,1-5.24.88,81.21,81.21,0,0,0-9.47,1.17q-4.68,1.32-13.48,4.83t-13.21,4.74a6.59,6.59,0,0,1-8.11-4.55,6,6,0,0,1,1.94-6.33l-1.57-5q-2.87-10.17-5.52-23.08t-5.43-26.74q-2.76-13.84-5-22a3.57,3.57,0,0,1,1.25-3.76,9.67,9.67,0,0,1,4-2.32,13.21,13.21,0,0,1,7.19,0,6,6,0,0,1,4.55,4.29,232.32,232.32,0,0,1,5.1,24.53q5.39,32.92,7.9,41.86l1.42,5.09q3.17-.9,9.34-3.22T765.11,925.71Z" transform="translate(-48.48 -87)"/><path d="M846.71,879.39q2.5,5.45-1.78,7.42a7.93,7.93,0,0,1-1.62.58q3.59,3.71,5.32,5.42a50.5,50.5,0,0,0,5.9,5c.21.22.65.62,1.34,1.2a5.32,5.32,0,0,1,1.2,1.25,5,5,0,0,1-.26,4.76,8.1,8.1,0,0,1-3.79,3.55q-6.49,3-15.75-6.92-1.17-1.2-7-8.42l-4.08,1.71-6.62,3q-9.09,4.17-10.23,7.52-1.49,4.31,3.7,15.6a4,4,0,0,1-.49,3.91,7.32,7.32,0,0,1-3.13,2.93,7.77,7.77,0,0,1-6.43.2,8.72,8.72,0,0,1-4.74-4.66q-1.61-3.51-4.6-24.61t-4.41-38.22q-1.79-21-.24-25.19a8.11,8.11,0,0,1,4.5-4.58,8.94,8.94,0,0,1,8.23.46q.38.15,10.76,14.72t21.37,30c3.91-1.06,6.82-1.24,8.71-.54A7.2,7.2,0,0,1,846.71,879.39Zm-43.49-20.45q.45,7.81,1.12,15.28t2,15.83c2.36-1.5,4.68-2.88,7-4.15s4.8-2.51,7.48-3.74q-2.49-3.72-8.56-11.48T803.22,858.94Z" transform="translate(-48.48 -87)"/><path d="M840.48,824.15l-1.42,1.43-3.26.66a10.44,10.44,0,0,1-3.29-2.71q-3-4,0-9a27.78,27.78,0,0,1,7-7.07,79.47,79.47,0,0,1,25.3-13q18.23-5.47,25.52,4.23,4.38,5.82,2.7,14.06a42.38,42.38,0,0,1-6,13.83q8.72-2.43,15.14-1a20.71,20.71,0,0,1,12.5,8.3q8,10.62,2.66,23.74-4.53,11.09-15.84,19.59Q891.24,885,884.24,884q-5.81-.81-11.38-8.24-2.49-3.32-4.58-6.57Q861,857.88,859.64,856a15,15,0,0,1-3.32-1.44,8.36,8.36,0,0,1-2.4-2.12,5,5,0,0,1-.18-6A91.49,91.49,0,0,1,847,836Q843.64,830,840.48,824.15Zm38.61-16.88q-3-4-13.63.42a63.77,63.77,0,0,0-13.64,7.76q2.49,4.74,5.87,10.42a109.58,109.58,0,0,0,6.64,10q5.82-4.38,11.44-13.07Q882.7,812.07,879.09,807.27Zm5.08,59.29c1.2,1.59,2.44,2.45,3.71,2.56s3.44-1,6.48-3.26a30.68,30.68,0,0,0,9.28-10.73q4-7.8-.25-13.4t-13.54-3a38.48,38.48,0,0,0-13.6,6.64,22.27,22.27,0,0,0-3.79,3.75q2.06,2.74,5.81,8.68T884.17,866.56Z" transform="translate(-48.48 -87)"/><path d="M938.14,815.15a64.42,64.42,0,0,0,11.71-2.34,20.75,20.75,0,0,0,10-6.95,33.74,33.74,0,0,0,5-7.56q2.52-5.7-.44-8.18-2.42-2-12.51,3-14,7-19.82,8.41-12.4,3.06-20.86-4t-7.54-30.26q1-22.2,8.41-31.1A10.11,10.11,0,0,1,923,732.64q5.09,1.26,10.9,6.11a39,39,0,0,1,8.68,9.45q4,6.63-.16,11.58a6.14,6.14,0,0,1-3.5,2.19,6.28,6.28,0,0,1-4.16-.58q-1.77-3.9-2.63-5.44a14.2,14.2,0,0,0-3.38-3.65,16.67,16.67,0,0,0-3.88-2.48,2.46,2.46,0,0,0-3.18.7q-3.84,4.61-4.26,18.29t4.09,17.43q3.62,3,14.56-1.64,20-8.62,20.5-8.77,12.12-3.86,18.49,1.45,8.13,6.76,4,19.82-3.09,9.52-11.13,19.18a40.9,40.9,0,0,1-12.14,10.34q-8.91,4.68-14.72-.17a12.21,12.21,0,0,1-3.86-5.53A5.63,5.63,0,0,1,938.14,815.15Z" transform="translate(-48.48 -87)"/><path class="a" d="M824.15,522.66s-187.39-25-292.93,26.92C467.39,581,400.73,639.19,400.73,639.19l342.19,13Z" transform="translate(-48.48 -87)"/><path class="b" d="M100,323.59s26,124.68,54.55,131.18,109.09-79.23,109.09-79.23Z" transform="translate(-48.48 -87)"/><path class="b" d="M336.4,408s23.38,97.42,61,103.91S506.54,434,506.54,434Z" transform="translate(-48.48 -87)"/><path class="b" d="M557.19,424.89l175.34-9.09s-51.64,116.89-94.81,116.89C602.65,532.69,557.19,424.89,557.19,424.89Z" transform="translate(-48.48 -87)"/><path class="b" d="M228.6,573l157.15,37.66S366.27,521,335.1,509.32,228.6,573,228.6,573Z" transform="translate(-48.48 -87)"/><path class="b" d="M498.75,639.19l168.84-14.28s-61-76.63-88.32-76.63C544.2,548.28,498.75,639.19,498.75,639.19Z" transform="translate(-48.48 -87)"/><path class="c" d="M579.27,193.71l333.79,72.73s59.65,98,6.5,293.53c-72.74,267.55-223.4,255.86-424.71,257.16S194,766.89,180.54,585.94c-5.19-70.13,134.6,20.95,294.83,37.67,129.9,13.55,275.21-14.88,315.6-80.53,20.79-33.76,58-129.75,3.9-120.78-49.93,8.27-58.44,48.05-237.68,27.27-250.39-29-515.9-102.47-500-162.35,40.26-152,170-42.94,267.55-32.47,71.39,7.66,135.07-50.65,135.07-50.65Z" transform="translate(-48.48 -87)"/><circle class="c" cx="833.41" cy="191.28" r="116.89"/><path class="c" d="M881.89,162.39a115.88,115.88,0,1,1-81.95,33.94,115.12,115.12,0,0,1,81.95-33.94m0-1A116.89,116.89,0,1,0,998.78,278.28,116.89,116.89,0,0,0,881.89,161.39Z" transform="translate(-48.48 -87)"/><circle class="c" cx="465.85" cy="124.89" r="116.89"/><path class="c" d="M514.33,96a115.88,115.88,0,1,1-82,33.94,115.12,115.12,0,0,1,82-33.94m0-1A116.89,116.89,0,1,0,631.22,211.89,116.89,116.89,0,0,0,514.33,95Z" transform="translate(-48.48 -87)"/><ellipse class="c" cx="466.5" cy="125.54" rx="16.23" ry="25.98"/><ellipse class="c" cx="881.89" cy="278.28" rx="25.98" ry="16.23" transform="translate(406.22 1011.45) rotate(-80)"/><path class="d" d="M579.27,193.71l333.79,72.73s59.65,98,6.5,293.53c-72.74,267.55-223.4,255.86-424.71,257.16S194,766.89,180.54,585.94c-5.19-70.13,134.6,20.95,294.83,37.67,129.9,13.55,275.21-14.88,315.6-80.53,20.79-33.76,58-129.75,3.9-120.78-49.93,8.27-58.44,48.05-237.68,27.27-250.39-29-515.9-102.47-500-162.35,40.26-152,170-42.94,267.55-32.47,71.39,7.66,135.07-50.65,135.07-50.65Z" transform="translate(-48.48 -87)"/><circle class="d" cx="833.41" cy="191.28" r="116.89"/><circle class="d" cx="465.85" cy="124.89" r="116.89"/><ellipse cx="466.5" cy="125.54" rx="16.23" ry="25.98"/><ellipse cx="881.89" cy="278.28" rx="25.98" ry="16.23" transform="translate(406.22 1011.45) rotate(-80)"/><path class="e" d="M493.55,779.46c-196.12.76-260-71.15-295.44-102.52,38.17,107.89,134.36,141.24,296.74,140.19,182-1.17,322.68,8.26,401.71-187.79C850.72,688.55,831.24,778.17,493.55,779.46Z" transform="translate(-48.48 -87)"/><path class="f" d="M623.43,223.58,768.9,253.45s37.9-82.14,127.28-64c100.65,20.38,102.56,86.4,102.6,88.79a116.91,116.91,0,0,0-225.86-42.3L631,205a116.88,116.88,0,0,0-188.5-85.31h0q-2.55,2-5,4.14l-.06.06c-.76.66-1.5,1.33-2.24,2l-.37.34c-.64.6-1.28,1.2-1.91,1.81l-.44.43c-.61.6-1.22,1.22-1.83,1.84l-.38.39c-.67.69-1.32,1.38-2,2.09l-.16.17c-1.46,1.59-2.86,3.21-4.23,4.87l0,.07c-.63.77-1.26,1.55-1.87,2.34l-.36.47c-.51.67-1,1.34-1.51,2-.15.2-.3.39-.44.59l-1.4,2-.42.61c-.49.7-1,1.41-1.43,2.12l-.3.47c-1.16,1.78-2.26,3.6-3.32,5.44l-.09.17c-.48.84-.95,1.68-1.4,2.53l-.36.68c-.37.69-.73,1.38-1.08,2.08-.14.28-.27.56-.41.83-.33.67-.65,1.33-1,2-.14.29-.28.58-.41.87-.32.69-.63,1.38-.93,2.08-.11.26-.23.52-.34.79-.36.82-.7,1.65-1,2.48l-.17.41c-.39,1-.77,2-1.14,3,0,.11-.07.22-.11.33-.32.87-.62,1.74-.91,2.62-.1.29-.2.59-.29.89-.23.7-.45,1.4-.67,2.1-.1.35-.21.7-.31,1.05-.2.67-.39,1.33-.57,2l-.3,1.1c-.18.67-.35,1.35-.51,2-.09.35-.18.7-.26,1.06-.18.75-.35,1.51-.51,2.27l-.18.83c-.21,1-.42,2.09-.6,3.14,0,.12,0,.24-.06.35-.17.93-.32,1.86-.46,2.8-.05.35-.09.7-.14,1-.1.71-.2,1.43-.29,2.14-.05.41-.09.81-.14,1.22-.07.66-.14,1.33-.2,2l-.12,1.26-.15,2c0,.41-.05.82-.07,1.24,0,.73-.07,1.46-.1,2.2,0,.35,0,.71,0,1.06,0,1.09-.05,2.18-.05,3.28,0,1.59,0,3.17.11,4.75v.26c0,.33,0,.62.05.94q.11,2,.27,4h0a117.12,117.12,0,0,0,3.25,19.24c-22.12,9.65-48.68,16.63-76.41,13.65C239.25,245.58,129.13,160.81,76.05,242c4.31-5.61,12.72-18,50.14-24.92,34.39-6.34,146.54,45.91,210.21,49.35,48.05,2.6,77.92-15.58,77.92-15.58s-10.32-17.79,1.92-66.22C425.61,147.55,464,119,508.39,120,610.84,118.68,623.43,223.58,623.43,223.58Z" transform="translate(-48.48 -87)"/></svg>