<svg xmlns="http://www.w3.org/2000/svg" viewBox="0 0 958.3 883.86"><defs><style>.a{fill:#ff7bac;}.a,.b,.c{stroke:#000;}.a,.b{stroke-miterlimit:10;stroke-width:8px;}.b{fill:#fff;}.c{fill:none;stroke-width:16px;}.d{fill:#9df249;}.e{fill:#75db42;}.f{fill:#bfff80;}</style></defs><path d="M157.93,849.7a80.26,80.26,0,0,0-5.76,9.3,45.16,45.16,0,0,1-3.44,5.47c-.83,1-2.16,1.33-4,.86a12.25,12.25,0,0,1-4.63-2.22q-4.57-3.65-2.65-10,1.47-4.85,7.08-11.88c1.61-2,3.79-4.53,6.57-7.56s4.48-5,5.14-5.77a17,17,0,0,1,.48-4.27,9.25,9.25,0,0,1,1.8-3.41q2.31-2.91,6.22-1.62A130.36,130.36,0,0,1,177.65,805q4.23-3.93,8.57-7.79a14.53,14.53,0,0,1,.89-2.94,11,11,0,0,1,1.4-2.91q3.38-4.25,13.32.93a93.29,93.29,0,0,1,14.75,9.92l2.35,1.86q6.81,5.43,8.85,8.15,4.44,5.9.61,10.71a8.89,8.89,0,0,1-4,2.64q-2.69,1-4.25-.28a26.71,26.71,0,0,1-3-3.12,26.71,26.71,0,0,0-3.22-3.29l-7.83-6.23q-5.43-4-8.75-4.6-2.7,1.34-10,9t-8.93,9.51c3.88,2.6,6.61,4.5,8.16,5.68s2.82,2.15,3.79,2.92q6,4.8,8,7.63,3.75,5.37,0,10.07-3.28,4.13-8.07,2.34a32.34,32.34,0,0,0-6.49-7,160.72,160.72,0,0,0-15.24-10.68c-1.54,1.94-2.83,3.48-3.85,4.61Q158.46,849,157.93,849.7Z" transform="translate(-48.48 -87)"/><path d="M265.3,904.25q-2.54,5.44-6.81,3.45a7.23,7.23,0,0,1-1.49-.85q-.5,5.13-.69,7.56a52.43,52.43,0,0,0,0,7.73c0,.3-.05.9,0,1.79a4.18,4.18,0,0,1-4,4.62,8.09,8.09,0,0,1-5.16-.59q-6.48-3-4.93-16.49.15-1.66,1.88-10.79l-4-2-6.6-3.08q-9.06-4.22-12.35-2.92-4.24,1.67-9.49,12.92a4,4,0,0,1-3.29,2.17,7.43,7.43,0,0,1-4.27-.49,7.82,7.82,0,0,1-4.32-4.77,8.7,8.7,0,0,1,.49-6.63q1.63-3.5,15.77-19.45t26.26-28.11q14.86-15,19-16.5a8.08,8.08,0,0,1,6.4.46,9,9,0,0,1,5,6.57q.14.39-4.24,17.73t-9,35.69q5,3.43,6,6.29A7.19,7.19,0,0,1,265.3,904.25Zm-12.59-46.37q-5.67,5.4-10.92,10.75T231,880.4q4,1.23,7.68,2.63c2.46.94,5,2,7.7,3.27q1.22-4.31,3.19-14C250.91,865.92,251.94,861.09,252.71,857.88Z" transform="translate(-48.48 -87)"/><path d="M317.53,922.3a108.36,108.36,0,0,0-3.39,21.27,6.14,6.14,0,0,1-3.95,2.65,12,12,0,0,1-5.54-.28q-5.38-1.43-5.79-7.73a36.63,36.63,0,0,1,1.57-11.56l.84-3.18q2.3-8.7,5.55-18.26L313.7,885q3.62-10.63,5.4-17.41a55.38,55.38,0,0,0-5.73-1.22q-9.11-1.36-9.79-1.54l-3.17-1.43a14.46,14.46,0,0,1-2.24-4.66,10,10,0,0,1,.28-4.72c.68-2.58,1.7-4.13,3.08-4.66a8.6,8.6,0,0,1,5.23,0c.73.2,1.49.42,2.26.67s1.57.49,2.4.71q5.94,1.56,26.27,5.15,10.17,1.8,15.83,3.29,5.25,1.38,7.54,3.32,3.4,2.82,2.12,7.65-1.05,4-3.11,5.09a6.91,6.91,0,0,1-5.1.28,44.65,44.65,0,0,1-4.54-1.56c-1.92-.76-3.06-1.18-3.43-1.28a71.45,71.45,0,0,0-11.86-2.09q-5.34,13.51-9.85,26.43T317.53,922.3Z" transform="translate(-48.48 -87)"/><path d="M450.34,937.67a32.54,32.54,0,0,1-9.84,20.59q-9.35,9.16-21,8.06-12.81-1.22-19-11.71Q395,945.19,396.21,932q.84-8.82,6.21-23.09,6.13-16.35,13.72-26.68,9.25-12.75,17.93-11.93,7.81.74,12.69,10a29,29,0,0,1,3.46,16.4,14.36,14.36,0,0,1-2.55,7.22,6.44,6.44,0,0,1-6.27,2.56c-2.28-.22-3.75-.79-4.43-1.71a5.22,5.22,0,0,1-.8-3.67c0-.47.16-1.18.34-2.11s.3-1.65.35-2.12a13.2,13.2,0,0,0-.63-5.52,6.63,6.63,0,0,0-3.07-3.88q-7.37,1.89-14.64,19.71-6.16,15.06-7.15,25.44a33.39,33.39,0,0,0,.7,12.26q2,7.23,8.3,7.82,9.24.89,14.15-11.57t10-12a5.62,5.62,0,0,1,4.53,2.87A9.15,9.15,0,0,1,450.34,937.67Z" transform="translate(-48.48 -87)"/><path d="M465.72,883.51a6.35,6.35,0,0,1,2.65-5.28,9.47,9.47,0,0,1,6-1.76,7.88,7.88,0,0,1,5.94-2.82,9.7,9.7,0,0,1,6.49,3.05,52.54,52.54,0,0,1,23.41,5.84q13.21,7,12.87,19.1-.29,9.42-10.07,16.57A60.71,60.71,0,0,1,494.45,927q6.29,9.33,12.74,18.67a60.9,60.9,0,0,0,16.13,15.2A13.06,13.06,0,0,0,524,963a7.36,7.36,0,0,1-3.1,5.55,9.38,9.38,0,0,1-6.28,2.31q-5.87-.17-14.3-9.42-9-9.84-19.61-28.17l-.62,11.42a100.35,100.35,0,0,0,1.81,20.92,6.47,6.47,0,0,1-2.95,3.2,9.12,9.12,0,0,1-4.61,1,8.11,8.11,0,0,1-7.31-4.22q-2.72-4.65-2.38-16.08l.17-5.71q.42-14.28,1.88-27.46t4.14-26.25a10.41,10.41,0,0,1-3.65-2.39A5.64,5.64,0,0,1,465.72,883.51Zm44.38,16.75q.16-5.71-14-8.57a59.4,59.4,0,0,0-10-1.29q-.69,4.13-1.47,8.89t-2.28,16.58a77.46,77.46,0,0,0,16.44-4.94Q509.92,906.12,510.1,900.26Z" transform="translate(-48.48 -87)"/><path d="M572.75,876.73q11.71-.19,17.81,13.85a63.07,63.07,0,0,1,4.83,24.21q.35,20.7-6.54,35.68-9,19.59-27.39,19.89-14.43.25-21.79-12.63-5.89-10.34-6.15-26.19-.25-14.56,6.7-34.69,8.6-24.72,20.31-24.92a6.7,6.7,0,0,1,4.38,1.5,11.17,11.17,0,0,1,3.13,4c.76-.11,1.5-.24,2.21-.4A13,13,0,0,1,572.75,876.73Zm-23.52,54.69a49.88,49.88,0,0,0,2.26,15.39q3.3,9.24,10.73,9.11,12-.2,16.16-24.7a101.1,101.1,0,0,0,1.54-18.61q-.15-9.42-1.66-14.26-2.73-9-9.72-8.84-5.87.11-9.31,7.52t-6,7.46a86.68,86.68,0,0,0-3.06,13.27A82.25,82.25,0,0,0,549.23,931.42Z" transform="translate(-48.48 -87)"/><path d="M663.31,933.09a32.59,32.59,0,0,1-5.78,22.08q-7.44,10.76-19.1,11.88-12.81,1.22-20.85-7.91-7.25-8.21-8.51-21.43-.84-8.82,1.73-23.85,3-17.22,8.44-28.79,6.68-14.28,15.35-15.11,7.81-.75,14.34,7.38a29,29,0,0,1,6.5,15.46,14.28,14.28,0,0,1-1.14,7.57,6.43,6.43,0,0,1-5.67,3.7q-3.42.33-4.68-.84a5.16,5.16,0,0,1-1.47-3.45c-.05-.47-.07-1.19-.07-2.15a20.24,20.24,0,0,0-.06-2.14,13.2,13.2,0,0,0-1.65-5.3,6.7,6.7,0,0,0-3.76-3.23q-6.85,3.24-10.65,22.12-3.21,15.95-2.22,26.33a33.33,33.33,0,0,0,3,11.91q3.36,6.72,9.62,6.11,9.25-.88,11.72-14T656,925.75a5.67,5.67,0,0,1,5,2A9.19,9.19,0,0,1,663.31,933.09Z" transform="translate(-48.48 -87)"/><path d="M706.14,861.68q11.49-2.34,20,10.36A63,63,0,0,1,735.36,895q4.13,20.29.08,36.28-5.22,20.89-23.29,24.56-14.14,2.88-23.73-8.44-7.68-9.08-10.83-24.62-2.91-14.28.25-35.34,3.93-25.86,15.41-28.2a6.73,6.73,0,0,1,4.58.67,11.19,11.19,0,0,1,3.81,3.31c.73-.25,1.43-.51,2.1-.79A13,13,0,0,1,706.14,861.68ZM693,919.75q1.88,9.24,5,14.72,4.92,8.47,12.21,7,11.76-2.38,11.37-27.24a99.93,99.93,0,0,0-1.88-18.57q-1.87-9.24-4.24-13.71-4.32-8.31-11.17-6.92-5.75,1.17-7.78,9.09T692,892.54a86.86,86.86,0,0,0-.59,13.61A81.57,81.57,0,0,0,693,919.75Z" transform="translate(-48.48 -87)"/><path d="M738.12,857.54a6.27,6.27,0,0,1,.39-5.62,8.57,8.57,0,0,1,4.6-3.65q17.45-6.35,38,4.7,20,10.8,26.4,28.24a41,41,0,0,1-.6,30.93,43,43,0,0,1-21.76,22.52q-4,2.69-7.94,5.33-4.83,1.75-8.44-2.71a33.15,33.15,0,0,1-4.77-9.36l-1-2.82Q757.8,910.74,753,895t-9-32.59a11.1,11.1,0,0,1-3.53-1.75A6.68,6.68,0,0,1,738.12,857.54Zm56.1,28.38a33.33,33.33,0,0,0-13.41-16.79,42.44,42.44,0,0,0-21.1-7,484.56,484.56,0,0,0,17.65,60.17,28.3,28.3,0,0,0,16.86-36.39Z" transform="translate(-48.48 -87)"/><path d="M857.09,899.86q1,1.89-.62,4.2a10.77,10.77,0,0,1-3.76,3.43q-6,3.12-10.64-1.51-2.61-2.51-6.53-10-5.06-9.62-10.12-21.4t-10.5-24.42q-5.43-12.65-9.62-20.61a3.59,3.59,0,0,1,.43-3.94,10.08,10.08,0,0,1,3.58-3.17,11.84,11.84,0,0,1,6.88-1.19,6.48,6.48,0,0,1,5.44,3.43,55.47,55.47,0,0,1,3.35,7.92c1,2.93,1.95,5.76,2.86,8.51a505.47,505.47,0,0,0,23.75,52.24,11.41,11.41,0,0,0,2,2.64A32.5,32.5,0,0,1,857.09,899.86Z" transform="translate(-48.48 -87)"/><path d="M900,858.08q5.34-3.84,9.08-4.75,6-1.47,9.14,2.94a10,10,0,0,1,1.58,4.66c.22,2-.21,3.32-1.29,4.09a30.23,30.23,0,0,1-4.63,2.62A77.54,77.54,0,0,0,905.4,872q-4,2.84-11,9.13t-10.8,9a6.58,6.58,0,0,1-9.17-1.51,6,6,0,0,1-.34-6.61l-3.2-4.21q-6.17-8.6-13.06-19.82t-14.23-23.29q-7.32-12.06-12.24-18.91a3.57,3.57,0,0,1-.11-4,9.66,9.66,0,0,1,3-3.55,13.15,13.15,0,0,1,6.76-2.47,5.94,5.94,0,0,1,5.73,2.48,230.81,230.81,0,0,1,13.17,21.32q16.29,29.12,21.7,36.65l3.08,4.3c1.78-1.28,4.34-3.34,7.68-6.21S898.23,859.35,900,858.08Z" transform="translate(-48.48 -87)"/><path d="M935.28,818.58a23.11,23.11,0,0,0,4.58,3.25q1.32-.15,4-2.63t3.36-3.22q1.93-2.1,4-4.56c1.39-1.64,2.78-3.37,4.19-5.18a36.5,36.5,0,0,1,8-7q5.63-3.16,9.73.61a9,9,0,0,1,2,2.85,10.75,10.75,0,0,1,.94,3.4l-.81,2.36a35.14,35.14,0,0,1-4,3.7q-6.47,5.12-7.24,6-3.58,3.9-7,8.17-10,12.75-11.06,13.9-2.72,2.94-7.25.69a45.78,45.78,0,0,1-10.32-7.57q-3.25-3-5.58-5.43l-5.28-5.55a25.07,25.07,0,0,1-4.28-.84,10.08,10.08,0,0,1-3.83-2.17,4.4,4.4,0,0,1-1.53-2.77,10,10,0,0,1,.46-3.66A118,118,0,0,1,897,800.57q-5.7-7-11.13-13.76c-.61-.17-1.6-.54-3-1.09a10.18,10.18,0,0,1-2.58-1.31q-4.52-4.17,2.92-15.18a122.19,122.19,0,0,1,11.27-13.71q7.75-8.4,12.08-10.24a6.86,6.86,0,0,1,7.89,1.45,10.59,10.59,0,0,1,2.47,4.8q1,3.45-.89,4.23a16,16,0,0,0-3.69,2.43,59.12,59.12,0,0,0-4.23,4.27l-2,2.2c-.71.77-1.46,1.51-2.24,2.21a41.77,41.77,0,0,0-4.33,5.44,11.77,11.77,0,0,0-1.91,5.13q1.53,3,8.89,11.12t10.82,11.34q1.54-1.68,4.34-5.13t4.34-5.13q5.63-6.09,8.48-7.93,6.11-3.88,10.31,0t1.86,8.52a49,49,0,0,0-8.4,7.21q-1.93,2.1-5.5,6.59t-5.39,6.49q1.36,1.26,4.53,4.57C934,817.29,935.14,818.45,935.28,818.58Z" transform="translate(-48.48 -87)"/><path class="a" d="M824.15,522.66s-187.39-25-292.93,26.92C467.39,581,400.73,639.19,400.73,639.19l342.19,13Z" transform="translate(-48.48 -87)"/><path class="b" d="M100,323.59s26,124.68,54.55,131.18,109.09-79.23,109.09-79.23Z" transform="translate(-48.48 -87)"/><path class="b" d="M336.4,408s23.38,97.42,61,103.91S506.54,434,506.54,434Z" transform="translate(-48.48 -87)"/><path class="b" d="M557.19,424.89l175.34-9.09s-51.64,116.89-94.81,116.89C602.65,532.69,557.19,424.89,557.19,424.89Z" transform="translate(-48.48 -87)"/><path class="b" d="M228.6,573l157.15,37.66S366.27,521,335.1,509.32,228.6,573,228.6,573Z" transform="translate(-48.48 -87)"/><path class="b" d="M498.75,639.19l168.84-14.28s-61-76.63-88.32-76.63C544.2,548.28,498.75,639.19,498.75,639.19Z" transform="translate(-48.48 -87)"/><path class="c" d="M579.27,193.71l333.79,72.73s59.65,98,6.5,293.53c-72.74,267.55-223.4,255.86-424.71,257.16S194,766.89,180.54,585.94c-5.19-70.13,134.6,20.95,294.83,37.67,129.9,13.55,275.21-14.88,315.6-80.53,20.79-33.76,58-129.75,3.9-120.78-49.93,8.27-58.44,48.05-237.68,27.27-250.39-29-515.9-102.47-500-162.35,40.26-152,170-42.94,267.55-32.47,71.39,7.66,135.07-50.65,135.07-50.65Z" transform="translate(-48.48 -87)"/><circle class="c" cx="833.41" cy="191.28" r="116.89"/><path class="c" d="M881.89,162.39a115.88,115.88,0,1,1-81.95,33.94,115.12,115.12,0,0,1,81.95-33.94m0-1A116.89,116.89,0,1,0,998.78,278.28,116.89,116.89,0,0,0,881.89,161.39Z" transform="translate(-48.48 -87)"/><circle class="c" cx="465.85" cy="124.89" r="116.89"/><path class="c" d="M514.33,96a115.88,115.88,0,1,1-82,33.94,115.12,115.12,0,0,1,82-33.94m0-1A116.89,116.89,0,1,0,631.22,211.89,116.89,116.89,0,0,0,514.33,95Z" transform="translate(-48.48 -87)"/><ellipse class="c" cx="466.5" cy="125.54" rx="16.23" ry="25.98"/><ellipse class="c" cx="881.89" cy="278.28" rx="25.98" ry="16.23" transform="translate(406.22 1011.45) rotate(-80)"/><path class="d" d="M579.27,193.71l333.79,72.73s59.65,98,6.5,293.53c-72.74,267.55-223.4,255.86-424.71,257.16S194,766.89,180.54,585.94c-5.19-70.13,134.6,20.95,294.83,37.67,129.9,13.55,275.21-14.88,315.6-80.53,20.79-33.76,58-129.75,3.9-120.78-49.93,8.27-58.44,48.05-237.68,27.27-250.39-29-515.9-102.47-500-162.35,40.26-152,170-42.94,267.55-32.47,71.39,7.66,135.07-50.65,135.07-50.65Z" transform="translate(-48.48 -87)"/><circle class="d" cx="833.41" cy="191.28" r="116.89"/><circle class="d" cx="465.85" cy="124.89" r="116.89"/><ellipse cx="466.5" cy="125.54" rx="16.23" ry="25.98"/><ellipse cx="881.89" cy="278.28" rx="25.98" ry="16.23" transform="translate(406.22 1011.45) rotate(-80)"/><path class="e" d="M493.55,779.46c-196.12.76-260-71.15-295.44-102.52,38.17,107.89,134.36,141.24,296.74,140.19,182-1.17,322.68,8.26,401.71-187.79C850.72,688.55,831.24,778.17,493.55,779.46Z" transform="translate(-48.48 -87)"/><path class="f" d="M623.43,223.58,768.9,253.45s37.9-82.14,127.28-64c100.65,20.38,102.56,86.4,102.6,88.79a116.91,116.91,0,0,0-225.86-42.3L631,205a116.88,116.88,0,0,0-188.5-85.31h0q-2.55,2-5,4.14l-.06.06c-.76.66-1.5,1.33-2.24,2l-.37.34c-.64.6-1.28,1.2-1.91,1.81l-.44.43c-.61.6-1.22,1.22-1.83,1.84l-.38.39c-.67.69-1.32,1.38-2,2.09l-.16.17c-1.46,1.59-2.86,3.21-4.23,4.87l0,.07c-.63.77-1.26,1.55-1.87,2.34l-.36.47c-.51.67-1,1.34-1.51,2-.15.2-.3.39-.44.59l-1.4,2-.42.61c-.49.7-1,1.41-1.43,2.12l-.3.47c-1.16,1.78-2.26,3.6-3.32,5.44l-.09.17c-.48.84-.95,1.68-1.4,2.53l-.36.68c-.37.69-.73,1.38-1.08,2.08-.14.28-.27.56-.41.83-.33.67-.65,1.33-1,2-.14.29-.28.58-.41.87-.32.69-.63,1.38-.93,2.08-.11.26-.23.52-.34.79-.36.82-.7,1.65-1,2.48l-.17.41c-.39,1-.77,2-1.14,3,0,.11-.07.22-.11.33-.32.87-.62,1.74-.91,2.62-.1.29-.2.59-.29.89-.23.7-.45,1.4-.67,2.1-.1.35-.21.7-.31,1.05-.2.67-.39,1.33-.57,2l-.3,1.1c-.18.67-.35,1.35-.51,2-.09.35-.18.7-.26,1.06-.18.75-.35,1.51-.51,2.27l-.18.83c-.21,1-.42,2.09-.6,3.14,0,.12,0,.24-.06.35-.17.93-.32,1.86-.46,2.8-.05.35-.09.7-.14,1-.1.71-.2,1.43-.29,2.14-.05.41-.09.81-.14,1.22-.07.66-.14,1.33-.2,2l-.12,1.26-.15,2c0,.41-.05.82-.07,1.24,0,.73-.07,1.46-.1,2.2,0,.35,0,.71,0,1.06,0,1.09-.05,2.18-.05,3.28,0,1.59,0,3.17.11,4.75v.26c0,.33,0,.62.05.94q.11,2,.27,4h0a117.12,117.12,0,0,0,3.25,19.24c-22.12,9.65-48.68,16.63-76.41,13.65C239.25,245.58,129.13,160.81,76.05,242c4.31-5.61,12.72-18,50.14-24.92,34.39-6.34,146.54,45.91,210.21,49.35,48.05,2.6,77.92-15.58,77.92-15.58s-10.32-17.79,1.92-66.22C425.61,147.55,464,119,508.39,120,610.84,118.68,623.43,223.58,623.43,223.58Z" transform="translate(-48.48 -87)"/></svg>