<svg xmlns="http://www.w3.org/2000/svg" viewBox="0 0 943.75 727"><defs><style>.a{fill:#ff7bac;}.a,.b,.c{stroke:#000;}.a,.b{stroke-miterlimit:10;stroke-width:8px;}.b{fill:#fff;}.c{fill:none;stroke-width:16px;}.d{fill:#9df249;}.e{fill:#75db42;}.f{fill:#bfff80;}</style></defs><path class="a" d="M826.3,615.05s-184.51-24.64-288.42,26.51C475,672.49,409.41,729.79,409.41,729.79l336.91,12.79Z" transform="translate(-62.48 -186)"/><path class="b" d="M113.34,419.06s25.58,122.76,53.71,129.15,107.41-78,107.41-78Z" transform="translate(-62.48 -186)"/><path class="b" d="M346.07,502.17s23,95.91,60.1,102.3,107.42-76.72,107.42-76.72Z" transform="translate(-62.48 -186)"/><path class="b" d="M563.46,518.8l172.63-8.95s-50.84,115.08-93.35,115.08C608.21,624.93,563.46,518.8,563.46,518.8Z" transform="translate(-62.48 -186)"/><path class="b" d="M239.94,664.57l154.73,37.09s-19.19-88.23-49.88-99.74S239.94,664.57,239.94,664.57Z" transform="translate(-62.48 -186)"/><path class="b" d="M505.92,729.79l166.23-14.07s-60.07-75.44-86.95-75.44C550.67,640.28,505.92,729.79,505.92,729.79Z" transform="translate(-62.48 -186)"/><path class="c" d="M585.2,291.18l328.63,71.61s58.73,96.48,6.4,289C848.62,915.21,700.28,903.7,502.08,905S205.82,855.52,192.63,677.36C187.51,608.31,325.15,698,482.9,714.45c127.9,13.34,271-14.66,310.73-79.29,20.46-33.24,57.09-127.74,3.84-118.92-49.16,8.15-57.55,47.31-234,26.85C316.93,514.51,55.52,442.21,71.15,383.25c39.64-149.61,167.35-42.28,263.41-32,70.29,7.55,133-49.87,133-49.87Z" transform="translate(-62.48 -186)"/><circle class="c" cx="820.66" cy="188.45" r="115.09"/><path class="c" d="M883.14,260.36a114.09,114.09,0,1,1-80.67,33.42,113.31,113.31,0,0,1,80.67-33.42m0-1A115.09,115.09,0,1,0,998.23,374.45,115.08,115.08,0,0,0,883.14,259.36Z" transform="translate(-62.48 -186)"/><circle class="c" cx="458.78" cy="123.09" r="115.09"/><path class="c" d="M521.26,195a114.1,114.1,0,1,1-80.67,33.42A113.34,113.34,0,0,1,521.26,195m0-1A115.09,115.09,0,1,0,636.35,309.09,115.09,115.09,0,0,0,521.26,194Z" transform="translate(-62.48 -186)"/><ellipse class="c" cx="459.42" cy="123.73" rx="15.98" ry="25.57"/><ellipse class="c" cx="883.14" cy="374.45" rx="25.57" ry="15.98" transform="translate(298.55 993.15) rotate(-80)"/><path class="d" d="M585.2,291.18l328.63,71.61s58.73,96.48,6.4,289C848.62,915.21,700.28,903.7,502.08,905S205.82,855.52,192.63,677.36C187.51,608.31,325.15,698,482.9,714.45c127.9,13.34,271-14.66,310.73-79.29,20.46-33.24,57.09-127.74,3.84-118.92-49.16,8.15-57.55,47.31-234,26.85C316.93,514.51,55.52,442.21,71.15,383.25c39.64-149.61,167.35-42.28,263.41-32,70.29,7.55,133-49.87,133-49.87Z" transform="translate(-62.48 -186)"/><circle class="d" cx="820.66" cy="188.45" r="115.09"/><circle class="d" cx="458.78" cy="123.09" r="115.09"/><ellipse cx="459.42" cy="123.73" rx="15.98" ry="25.57"/><ellipse cx="883.14" cy="374.45" rx="25.57" ry="15.98" transform="translate(298.55 993.15) rotate(-80)"/><path class="e" d="M500.8,867.89c-193.09.75-255.95-70.06-290.87-100.94C247.51,873.18,342.2,906,502.08,905c179.24-1.16,317.7,8.13,395.51-184.9C852.45,778.38,833.27,866.61,500.8,867.89Z" transform="translate(-62.48 -186)"/><path class="f" d="M628.67,320.59,771.89,350S809.21,269.13,897.21,287c99.09,20.07,101,85.07,101,87.42a115.1,115.1,0,0,0-222.37-41.64L636.14,302.28a115.08,115.08,0,0,0-185.6-84h0q-2.52,2-4.93,4.07l-.07.06c-.74.65-1.47,1.31-2.2,2l-.36.34c-.64.58-1.26,1.18-1.88,1.78l-.43.42c-.61.6-1.21,1.2-1.81,1.81l-.38.39c-.65.68-1.3,1.36-1.93,2.06a1.29,1.29,0,0,0-.16.17c-1.43,1.56-2.82,3.15-4.16,4.79l-.06.07c-.62.76-1.23,1.53-1.83,2.3L430,239c-.5.65-1,1.31-1.49,2l-.43.59c-.47.64-.93,1.29-1.38,1.94l-.41.6q-.72,1-1.41,2.1l-.3.46q-1.69,2.63-3.26,5.35l-.1.17c-.47.82-.92,1.65-1.37,2.49l-.36.67c-.36.68-.71,1.36-1.06,2-.13.27-.27.54-.4.82-.32.65-.64,1.3-.95,2-.13.29-.27.57-.4.86-.31.68-.62,1.36-.92,2l-.33.77c-.35.81-.69,1.63-1,2.45l-.16.39c-.39,1-.76,2-1.12,2.95L413,270c-.3.85-.6,1.71-.89,2.58-.1.29-.19.58-.29.88-.22.68-.44,1.37-.65,2.06-.11.35-.21.69-.31,1-.19.65-.38,1.31-.56,2-.1.36-.2.72-.29,1.09-.18.66-.35,1.33-.51,2-.09.34-.17.69-.26,1-.17.74-.33,1.49-.49,2.24-.06.27-.13.54-.18.81-.21,1-.41,2.06-.6,3.1l-.06.34c-.16.91-.31,1.83-.44,2.76-.06.34-.1.68-.15,1-.1.7-.19,1.4-.28,2.11,0,.39-.09.79-.13,1.19q-.12,1-.21,2c0,.42-.07.83-.11,1.25l-.15,2c0,.41-.05.81-.07,1.22,0,.72-.07,1.45-.1,2.17,0,.35,0,.7,0,1.05,0,1.07-.05,2.15-.05,3.23,0,1.56.05,3.12.11,4.67V314c0,.32,0,.61.05.92q.1,2,.27,4h0a114.84,114.84,0,0,0,3.2,19c-21.78,9.49-47.94,16.36-75.24,13.43-84.14-9-192.55-92.48-244.81-12.54C94,333.22,102.27,321,139.11,314.2c33.86-6.24,144.28,45.2,207,48.59,47.32,2.56,76.73-15.34,76.73-15.34s-10.17-17.52,1.88-65.19c9.23-36.52,47-64.63,90.73-63.62C616.28,217.31,628.67,320.59,628.67,320.59Z" transform="translate(-62.48 -186)"/></svg>